<svg width="113" height="113" viewBox="0 0 113 113" fill="none" xmlns="http://www.w3.org/2000/svg">
<path d="M37.8222 77.3121C37.7847 77.4355 37.7471 77.5427 37.7149 77.6339L36.7014 80.342H38.9376L37.9348 77.6393C37.908 77.5749 37.8705 77.4569 37.8222 77.3121Z" fill="#6E56C5"/>
<path d="M19.0318 77.3121C18.9942 77.4355 18.9567 77.5427 18.9245 77.6339L17.911 80.342H20.1472L19.1444 77.6393C19.123 77.5749 19.0801 77.4569 19.0318 77.3121Z" fill="#6E56C5"/>
<path d="M56.5 0C25.2952 0 0 25.2952 0 56.5C0 87.7048 25.2952 113 56.5 113C87.7048 113 113 87.7048 113 56.5C113 25.2952 87.7048 0 56.5 0ZM80.9158 57.4545H82.68L87.1685 69.027H84.9109L83.6185 65.7075H79.9183L78.642 69.027H76.4112L80.9158 57.4545ZM71.1452 69.027H69.4774L66.6728 61.5515C66.6728 61.7446 66.6781 61.9323 66.6781 62.1253V69.027H64.6296V57.5028H67.3056L70.3622 65.6324L73.4779 57.5028H76.1377V69.027H73.9981V62.0342C73.9981 61.8679 73.998 61.7017 74.0034 61.5354L71.1452 69.027ZM63.2729 28.8667C63.5732 28.7434 63.7609 29.0008 63.7716 29.0168C65.1123 31.2584 65.4179 33.6769 64.7155 35.5806C63.7824 38.1064 61.7285 38.7982 60.6721 40.7287C60.6077 40.852 60.4522 40.9378 60.3021 40.9217C60.1412 40.911 59.9857 40.7877 59.932 40.6214C59.9267 40.6107 59.9267 40.6 59.9213 40.5893C59.4011 39.0234 59.3797 37.0821 60.8651 34.9907C62.0449 33.3284 63.2836 31.8912 63.0262 29.2689C63.0209 29.2421 63.0048 28.9793 63.2729 28.8667ZM49.4107 28.309C53.4487 22.9303 56.323 19.8415 55.3578 16.1842C55.3363 16.1091 55.3149 15.8517 55.5455 15.7338C55.9101 15.5461 56.1139 15.9 56.1246 15.9268C58.4788 19.82 56.3391 24.4372 52.8964 29.7462C50.9497 32.7385 49.8826 37.4629 53.2342 41.2274C53.4112 41.4258 53.4004 41.6296 53.2932 41.7798C53.1967 41.9138 53.0358 41.9996 52.7891 41.9085C48.4132 40.2407 44.7721 34.4813 49.4107 28.309ZM37.0392 49.223L39.8331 45.1796C39.8331 45.1796 39.9029 45.0777 40.0852 45.0402C40.6804 44.9329 42.8201 44.5093 47.2764 43.3349C50.0703 42.6002 53.2342 43.1097 54.5373 44.4449C55.701 45.6354 56.1139 47.0994 56.1997 47.3246C56.3284 47.6732 56.4732 48.4615 56.4732 48.4615C56.4732 48.4615 56.9397 47.2067 57.1006 46.9761C57.2079 46.8259 57.7977 46.8045 58.2375 45.6247C58.5646 44.7506 58.2482 43.5226 56.6662 42.4072C53.2449 40.0047 52.832 34.2078 55.7975 29.848C58.5646 25.7832 59.5406 23.1448 59.1598 21.0105C59.1545 20.973 59.1169 20.6888 59.369 20.5654C59.6371 20.4314 59.8516 20.6405 59.8677 20.662C63.3963 25.3381 60.5702 29.9714 58.8703 32.4543C57.2239 34.8567 56.677 36.8998 57.1918 39.2379C57.299 39.742 57.3848 40.5035 57.8353 41.3132C58.2536 41.9621 58.9239 43.7317 60.0018 43.3349C61.7124 42.7021 63.3855 43.0989 66.2491 43.7103C70.2871 44.5683 72.2177 44.9383 72.7539 45.0402C72.9255 45.0724 73.0113 45.2064 73.0435 45.2493C73.065 45.2761 75.9661 49.2337 75.9661 49.2337C75.9661 49.2337 76.1216 49.4214 76.009 49.6466C75.9447 49.7593 75.816 49.9148 75.5478 49.8665C73.124 49.4 67.0482 48.247 64.5653 47.8931C61.3102 47.4265 58.2428 47.8609 56.8325 49.5126C56.7681 49.5877 56.677 49.7056 56.4839 49.7056C56.2909 49.7056 56.1997 49.6037 56.13 49.5233C54.7411 47.8824 51.7434 47.4265 48.6117 47.8716C46.161 48.2202 39.9511 49.3946 37.4843 49.8665C37.1948 49.9416 36.9963 49.7753 36.9481 49.5877C36.9052 49.3946 37.0392 49.223 37.0392 49.223ZM56.7735 69.027V57.5028H63.5679V59.4923H58.9292V62.0342H62.9512V64.0076H58.9292V67.0321H64.0827L63.3265 69.0216H56.7735V69.027ZM60.0125 70.6894V71.365L59.9428 71.4669C59.5406 72.0622 58.452 73.2419 57.7066 73.8157L57.5993 73.8962H56.189V73.1776L56.2748 73.0703C56.7252 72.4965 57.3419 71.5313 57.6583 70.9146L57.7709 70.6947H60.0125V70.6894ZM44.1983 62.2862C46.22 63.0423 47.389 63.8521 47.389 65.7558C47.389 67.8633 45.7695 69.1771 43.1579 69.1771C41.8709 69.1771 40.7662 68.9787 40.0369 68.6248L39.7098 68.4639L40.4123 66.6084L40.8038 66.7854C41.147 66.9409 42.0372 67.1983 43.2223 67.1983C44.1393 67.1983 45.2386 66.9677 45.2386 65.8738C45.2386 65.1176 44.9115 64.7476 42.981 64.0451C41.4848 63.5035 39.9511 62.6616 39.9511 60.4844C39.9511 58.6075 41.4902 57.3473 43.7746 57.3473C44.8954 57.3473 45.9465 57.5618 46.8956 57.9801L47.2442 58.1356L46.5256 60.0393L46.1395 59.8784C45.2761 59.5138 44.4932 59.3422 43.7425 59.3422C43.1365 59.3422 42.1176 59.4923 42.1176 60.5005C42.123 61.2727 42.4072 61.6212 44.1983 62.2862ZM34.6636 59.4923V57.5028H39.5221L38.766 59.4923H38.0796V67.0213H39.3398V69.027H34.4813L35.2321 67.0213H35.9185V59.4923H34.6636ZM29.9338 64.0451C28.4377 63.5035 26.904 62.6616 26.904 60.4844C26.904 58.6075 28.4431 57.3473 30.7275 57.3473C31.8483 57.3473 32.8993 57.5618 33.8485 57.9801L34.1971 58.1356L33.4785 60.0393L33.0924 59.8784C32.229 59.5138 31.4461 59.3422 30.6953 59.3422C30.0894 59.3422 29.0705 59.4923 29.0705 60.5005C29.0705 61.2727 29.3601 61.6212 31.1511 62.2862C33.1728 63.0423 34.3419 63.8521 34.3419 65.7558C34.3419 67.8633 32.7224 69.1771 30.1108 69.1771C28.8238 69.1771 27.7191 68.9787 26.9898 68.6248L26.6627 68.4639L27.3652 66.6084L27.7566 66.7854C28.0998 66.9409 28.99 67.1983 30.1752 67.1983C31.0922 67.1983 32.1915 66.9677 32.1915 65.8738C32.1915 65.123 31.8644 64.753 29.9338 64.0451ZM22.1474 85.667L20.855 82.3476H17.1549L15.8786 85.667H13.6531L18.1576 74.0946H19.9219L24.4104 85.667H22.1474ZM40.9378 85.667L39.6455 82.3476H35.9453L34.669 85.667H32.4382L32.6848 85.0288L32.5508 85.0878C31.3442 85.6455 30.5237 85.8171 29.0329 85.8171C25.6492 85.8171 23.7079 83.656 23.7079 79.8915C23.7079 76.2557 25.8368 73.9927 29.2582 73.9927C30.4647 73.9927 31.4622 74.1965 32.3041 74.6201L32.6312 74.781L31.9019 76.7061L31.5104 76.5292C30.9474 76.2718 30.1805 75.9822 29.2421 75.9822C27.1721 75.9822 25.9334 77.4462 25.9334 79.9022C25.9334 81.6933 26.5018 83.8223 29.226 83.8223C30.1323 83.8223 31.1994 83.6185 31.8161 83.3182L32.2129 83.1305L32.8082 84.7071L36.9374 74.0946H38.7016L43.1901 85.667H40.9378ZM46.8581 85.667H43.469V74.1428H47.1745C50.7352 74.1428 52.8642 76.2557 52.8642 79.8003C52.8642 83.5273 50.6762 85.667 46.8581 85.667ZM52.9124 69.027H50.7567V59.4923H47.2281L47.9842 57.5028H56.248V59.4923H52.9124V69.027ZM60.5166 85.667H53.9635V74.1428H60.7579V76.1324H56.1193V78.6742H60.1412V80.6476H56.1193V83.6721H61.2727L60.5166 85.667ZM73.3277 85.667H71.1881V78.6742C71.1881 78.508 71.1881 78.3417 71.1934 78.1755L68.3405 85.667H66.6728L63.8682 78.1916C63.8682 78.3846 63.8735 78.5723 63.8735 78.7654V85.667H61.825V74.1428H64.5009L67.5576 82.2725L70.6733 74.1428H73.3331V85.667H73.3277ZM78.8351 85.667H73.9766L74.7274 83.6614H75.4138V76.1324H74.1536V74.1428H79.012L78.2559 76.1324H77.5695V83.6614H78.8297V85.667H78.8351ZM87.7959 85.0878C86.5894 85.6455 85.7689 85.8171 84.2781 85.8171C80.8943 85.8171 78.9531 83.656 78.9531 79.8915C78.9531 76.2557 81.082 73.9927 84.5033 73.9927C85.7099 73.9927 86.7073 74.1965 87.5492 74.6201L87.8764 74.781L87.1471 76.7061L86.7556 76.5292C86.1925 76.2718 85.4257 75.9822 84.4872 75.9822C82.4173 75.9822 81.1785 77.4462 81.1785 79.9022C81.1785 81.6933 81.747 83.8223 84.4711 83.8223C85.3774 83.8223 86.4446 83.6185 87.0613 83.3182L87.4581 83.1305L88.1338 84.927L87.7959 85.0878ZM93.0673 85.8171C89.6621 85.8171 87.7101 83.6507 87.7101 79.8754C87.7101 76.127 89.6675 73.9766 93.0834 73.9766C96.4189 73.9766 98.4084 76.186 98.4084 79.8915C98.4084 83.6024 96.4136 85.8171 93.0673 85.8171Z" fill="#6E56C5"/>
<path d="M93.0835 75.9661C90.9975 75.9661 89.941 77.2853 89.941 79.8861C89.941 82.5084 90.9921 83.8383 93.0674 83.8383C95.132 83.8383 96.1777 82.5084 96.1777 79.8861C96.1777 77.2477 95.1642 75.9661 93.0835 75.9661Z" fill="#6E56C5"/>
<path d="M46.9815 76.1002H45.6248V83.7043H46.6812C49.341 83.7043 50.6334 82.4388 50.6334 79.8433C50.6334 77.3282 49.4375 76.1002 46.9815 76.1002Z" fill="#6E56C5"/>
<path d="M81.9131 60.9992C81.8863 60.9349 81.8487 60.8169 81.8005 60.6721C81.7629 60.7955 81.7254 60.9027 81.6932 60.9939L81.6878 61.0046L80.6743 63.702H82.9105L81.9131 60.9992Z" fill="#6E56C5"/>
</svg>
