<svg width="113" height="113" viewBox="0 0 113 113" fill="none" xmlns="http://www.w3.org/2000/svg">
<path d="M16.2271 47.6541C15.471 47.6541 14.8918 47.8954 14.4843 48.3727C14.0767 48.85 13.8783 49.5042 13.8783 50.3247C13.8783 51.1345 14.0821 51.7834 14.4843 52.2607C14.8918 52.738 15.471 52.9793 16.2271 52.9793C16.9725 52.9793 17.5463 52.738 17.9485 52.2607C18.356 51.7834 18.5545 51.1345 18.5545 50.3247C18.5545 49.5042 18.3507 48.85 17.9485 48.3727C17.5409 47.89 16.9671 47.6541 16.2271 47.6541Z" fill="#6E56C5"/>
<path d="M73.3385 48.394L72.2552 51.7244H74.4217L73.3385 48.394Z" fill="#6E56C5"/>
<path d="M56.5 0C29.3601 0 6.69248 19.1399 1.24948 44.6562C1.93589 44.4042 2.69737 44.2701 3.54466 44.2701C4.57963 44.2701 5.50736 44.4631 6.32247 44.8546C7.13758 45.2408 7.80253 45.7931 8.31734 46.501C8.83215 47.2089 9.16999 48.0401 9.34159 48.984H5.38938C5.20705 48.5872 4.95501 48.2815 4.62253 48.0616C4.29005 47.8417 3.90931 47.7345 3.4803 47.7345C2.84752 47.7345 2.3488 47.9704 1.98415 48.4424C1.61949 48.9143 1.43717 49.5525 1.43717 50.3515C1.43717 51.1506 1.61949 51.7888 1.98415 52.2607C2.3488 52.7326 2.84752 52.9686 3.4803 52.9686C3.90931 52.9686 4.29005 52.856 4.62253 52.6414C4.95501 52.4216 5.21241 52.1159 5.38938 51.719H9.34159C9.16999 52.6629 8.83215 53.4941 8.31734 54.202C7.80253 54.9099 7.13758 55.4623 6.32247 55.8484C5.50736 56.2345 4.57963 56.433 3.54466 56.433C2.33808 56.433 1.29238 56.1755 0.402192 55.6661C0.268128 55.5856 0.144789 55.4945 0.0160876 55.4087C0.010725 55.7733 0 56.1326 0 56.4973C0 87.7036 25.2952 113 56.5 113C87.7048 113 113 87.7036 113 56.4973C113 25.2964 87.7048 0 56.5 0ZM101.546 52.8077C102.371 52.8077 103.036 53.478 103.036 54.2986C103.036 55.1191 102.366 55.7894 101.546 55.7894C100.725 55.7894 100.055 55.1191 100.055 54.2986C100.055 53.478 100.725 52.8077 101.546 52.8077ZM89.4315 44.3881H97.411V47.3644H93.1853V48.8499H96.9016V51.6761H93.1853V53.3654H97.411V56.3579H89.4315V44.3881ZM78.6152 44.3881H88.6861V47.3644H85.5061V56.3579H81.7523V47.3644H78.6099V44.3881H78.6152ZM75.5157 44.3881L79.8754 56.3525H75.9232L75.3333 54.5452H71.3436L70.7537 56.3525H66.8176L71.1934 44.3881H75.5157ZM58.0176 44.3881H68.0885V47.3644H64.9085V56.3579H61.1547V47.3644H58.0122V44.3881H58.0176ZM38.7928 41.2455L43.1687 39.3846V42.1571L38.7928 43.7445V41.2455ZM21.5414 53.4834C20.9944 54.4165 20.2491 55.1512 19.3106 55.6822C18.3722 56.2131 17.3425 56.4759 16.2271 56.4759C15.101 56.4759 14.066 56.2131 13.1276 55.6822C12.1891 55.1512 11.4384 54.4219 10.886 53.4834C10.3337 52.5503 10.0602 51.4938 10.0602 50.3247C10.0602 49.1556 10.3337 48.0991 10.886 47.166C11.4384 46.2329 12.1838 45.5035 13.1276 44.978C14.066 44.4524 15.101 44.1896 16.2271 44.1896C17.3533 44.1896 18.3829 44.4524 19.3213 44.978C20.2544 45.5035 20.9944 46.2329 21.5414 47.166C22.0884 48.0991 22.3619 49.1556 22.3619 50.3247C22.3619 51.4938 22.0884 52.5449 21.5414 53.4834ZM35.1409 56.3579H31.3871L27.4134 50.3408V56.3579H23.6596V44.3881H27.4134L31.3871 50.507V44.3881H35.1409V56.3579ZM44.9598 47.3644H40.7341V48.8499H44.4503V51.6761H40.7341V53.3654H44.9598V56.3579H36.9803V44.3881H44.9598V47.3644ZM48.7082 55.6714C47.818 55.1566 47.1316 54.438 46.6543 53.5156C46.1771 52.5932 45.9357 51.5367 45.9357 50.3569C45.9357 49.1717 46.1771 48.1206 46.6543 47.1982C47.1316 46.2758 47.818 45.5572 48.7082 45.0423C49.5984 44.5275 50.6441 44.2754 51.8507 44.2754C52.8856 44.2754 53.8134 44.4685 54.6285 44.86C55.4436 45.2461 56.1085 45.7985 56.6233 46.5064C57.1381 47.2143 57.476 48.0455 57.6476 48.9894H53.6954C53.513 48.5925 53.261 48.2868 52.9285 48.067C52.596 47.8471 52.2153 47.7398 51.7863 47.7398C51.1535 47.7398 50.6548 47.9758 50.2901 48.4477C49.9255 48.9197 49.7432 49.5578 49.7432 50.3569C49.7432 51.1559 49.9255 51.7941 50.2901 52.266C50.6548 52.738 51.1535 52.9739 51.7863 52.9739C52.2153 52.9739 52.596 52.8613 52.9285 52.6468C53.261 52.4269 53.5184 52.1213 53.6954 51.7244H57.6476C57.476 52.6683 57.1381 53.4995 56.6233 54.2074C56.1085 54.9153 55.4436 55.4677 54.6285 55.8538C53.8134 56.2399 52.8856 56.4383 51.8507 56.4383C50.6441 56.4383 49.593 56.1863 48.7082 55.6714ZM105.879 79.7559C105.868 79.7559 105.862 79.7559 105.852 79.7559C105.846 79.7559 97.6094 79.7451 97.4646 79.7451C97.4378 79.7451 97.411 79.7451 97.3842 79.7398C97.3735 79.7398 97.3574 79.7398 97.3467 79.7344C96.8211 79.6915 96.6656 78.9783 97.1751 78.7584C97.1804 78.7584 97.1858 78.753 97.1912 78.753C99.0198 78.0666 99.127 77.9111 99.127 75.1117V69.8025C99.127 67.3249 98.7517 65.952 97.7274 64.6327C96.6549 63.2062 95.2016 62.4661 93.5339 62.4661C90.9545 62.4661 88.3215 64.209 88.3215 65.893C88.3215 66.0485 88.3268 66.263 88.3751 66.5258C88.4555 66.9548 88.536 67.9201 88.536 68.2687V74.999C88.536 77.6376 89.2331 78.4795 91.7589 78.694C91.85 78.7048 91.9358 78.7155 92.0163 78.7316C92.027 78.7316 92.0324 78.7369 92.0377 78.7369C92.7134 78.9085 92.5204 79.7505 91.9412 79.7505C91.9358 79.7505 91.9305 79.7505 91.9197 79.7505C91.9197 79.7505 84.7125 79.7398 83.4254 79.7344C83.4147 79.7344 83.4094 79.7344 83.3986 79.7344C82.7873 79.7344 82.6961 78.8978 83.227 78.7369C83.2377 78.7369 83.2431 78.7316 83.2485 78.7262C84.8841 78.1524 84.9323 77.9593 84.9323 75.3691V68.3706C84.9323 64.7292 82.8892 62.5144 79.559 62.5144C76.497 62.5144 74.4002 64.2037 74.4002 66.7886V75.3155C74.4002 75.959 74.4431 76.5811 74.4378 77.1442C74.545 77.7502 75.1403 78.088 75.8052 78.2865C75.8106 78.2865 75.8213 78.2918 75.8267 78.2918C76.3897 78.4688 76.3147 79.2303 75.7355 79.3C75.7194 79.3 75.7087 79.3054 75.6926 79.3054C73.923 79.4931 71.5313 79.7505 71.5152 79.7505C70.818 79.7183 70.7644 79.595 70.6572 76.3773C69.6919 77.5893 69.2039 78.0666 68.5068 78.5921C67.1608 79.5414 65.0158 80.2278 63.2407 80.2278C61.144 80.2278 58.7791 79.3322 57.5457 78.1202C56.1461 76.801 55.3953 74.5861 55.3953 72.0012C55.3953 71.7384 55.3953 71.3684 55.4489 70.9447V70.0974V64.1018C55.4489 62.6431 54.6016 62.0157 53.7758 61.6939C53.749 61.6832 53.7222 61.6778 53.6954 61.6671C53.1538 61.3775 53.4112 60.7339 53.8294 60.6964C53.8455 60.6964 53.8563 60.691 53.8723 60.691C55.1915 60.4873 57.047 60.2996 58.4412 60.0475C58.4466 60.0475 58.452 60.0421 58.4573 60.0421C58.7898 60.0207 58.9829 60.2406 59.0258 60.4336C59.0311 60.4444 59.0311 60.4604 59.0365 60.4712C59.0848 60.7286 59.1008 61.1147 59.1008 61.6724L58.9936 70.6176V71.776C58.9936 75.6801 61.3585 78.3723 64.8495 78.3723C68.1797 78.3723 70.9199 75.9965 70.6518 73.2561V73.1006V64.2573C70.6733 62.5627 69.8367 61.8923 69.0001 61.5974C68.9894 61.592 68.9787 61.592 68.968 61.5866C68.4371 61.4097 68.48 60.7179 69.0216 60.5891C69.0323 60.5838 69.0484 60.5838 69.0591 60.5838C70.5928 60.2942 72.7486 60.0582 73.7031 59.8973C74.0141 59.8437 74.3949 59.9403 74.3949 61.0986V63.9409C76.3308 61.6188 78.6957 60.4604 81.4359 60.4604C84.3907 60.4604 86.1657 61.5652 87.8335 64.3109C89.8766 61.6724 92.2415 60.4604 95.2499 60.4604C99.8724 60.4604 102.666 63.6245 102.666 68.9015V74.6826C102.666 75.8464 102.881 77.0047 103.203 77.4284C103.61 77.9808 104.897 78.5814 105.9 78.7262C105.905 78.7262 105.921 78.7316 105.937 78.7316C105.943 78.7316 105.948 78.7316 105.954 78.7316C106.624 78.9407 106.393 79.7451 105.879 79.7559Z" fill="#6E56C5"/>
</svg>
