<svg width="113" height="113" viewBox="0 0 113 113" fill="none" xmlns="http://www.w3.org/2000/svg">
<path d="M33.2961 56.2909C31.1672 56.2909 29.3761 57.0041 27.9228 58.4306C26.4696 59.857 25.6652 61.7661 25.515 64.1524H40.7983C40.5946 61.8519 40.01 60.1251 39.0448 58.9722C37.5647 57.1811 35.6503 56.2909 33.2961 56.2909Z" fill="#6E56C5"/>
<path d="M60.066 63.8521V46.8152L48.2362 63.8521H60.066Z" fill="#6E56C5"/>
<path d="M56.5 0C25.2952 0 0 25.2952 0 56.5C0 87.7048 25.2952 113 56.5 113C87.7048 113 113 87.7048 113 56.5C113 25.2952 87.7048 0 56.5 0ZM92.5418 68.1528H67.563C67.563 68.1368 67.563 68.1207 67.563 68.1046H64.7047V77.1512H60.0661V68.1046H43.6727V67.9652H25.2523C25.4239 70.9736 26.2766 73.2741 27.8049 74.8721C29.3332 76.4702 31.2423 77.2692 33.5268 77.2692C35.2267 77.2692 36.68 76.8241 37.8812 75.9286C39.0824 75.033 40.0369 73.6066 40.7448 71.6492L45.5389 72.2445C44.7828 75.0437 43.3832 77.221 41.3347 78.7654C39.2915 80.3098 36.68 81.0874 33.5 81.0874C29.4941 81.0874 26.3195 79.854 23.976 77.3872C21.6326 74.9204 20.4582 71.4616 20.4582 67.0106C20.4582 62.4042 21.6433 58.8327 24.0136 56.2855C26.3838 53.7436 29.4619 52.4727 33.2425 52.4727C36.9052 52.4727 39.8921 53.7168 42.2141 56.2104C43.603 57.7012 44.5683 59.5674 45.126 61.7875L60.9188 39.3612H64.7101V63.8521H68.6623C69.2843 62.6455 70.1155 61.455 71.1612 60.2752C72.5609 58.6987 74.5826 56.8754 77.2317 54.8108C81.3394 51.5932 84.1119 49.046 85.5597 47.1638C87.0023 45.2869 87.7262 43.5065 87.7262 41.8334C87.7262 40.0798 87.0666 38.5944 85.7528 37.3878C84.439 36.1812 82.7229 35.5806 80.6101 35.5806C78.3739 35.5806 76.5882 36.2188 75.2475 37.5004C73.9069 38.7821 73.2258 40.5517 73.2098 42.8201L68.4424 42.3535C68.7696 38.9537 69.9976 36.3689 72.1265 34.5832C74.2555 32.8028 77.1191 31.9126 80.712 31.9126C84.3371 31.9126 87.2061 32.8725 89.3243 34.7923C91.4371 36.7121 92.4935 39.0931 92.4935 41.9299C92.4935 43.3724 92.1825 44.7935 91.5658 46.1878C90.9491 47.582 89.9195 49.0514 88.4877 50.5958C87.0505 52.1402 84.6696 54.2584 81.334 56.9505C78.5509 59.1813 76.7651 60.6989 75.9715 61.4925C75.1832 62.2916 74.5289 63.0906 74.0141 63.895H92.5472V68.1528H92.5418Z" fill="#6E56C5"/>
</svg>
