<svg width="113" height="113" viewBox="0 0 113 113" fill="none" xmlns="http://www.w3.org/2000/svg">
<path d="M56.5 0C25.2952 0 0 25.2952 0 56.5C0 87.7048 25.2952 113 56.5 113C87.7048 113 113 87.7048 113 56.5C113 25.2952 87.7048 0 56.5 0ZM52.9446 65.1552C52.9446 64.9782 53.0787 64.8441 53.3039 64.753C54.8376 64.1738 54.9288 64.0398 54.9288 61.6749V57.181C54.9288 55.0843 54.6124 53.9206 53.7544 52.8052C52.8535 51.5986 51.6308 50.9712 50.2365 50.9712C48.07 50.9712 45.8607 52.4459 45.8607 53.8723C45.8607 54.0064 45.8607 54.1834 45.9036 54.4086C46.0376 55.1218 46.0376 55.213 46.0376 55.8833V61.5837C46.0376 63.8145 46.6222 64.5331 48.7457 64.7101C49.2444 64.753 49.4697 64.9353 49.4697 65.2034C49.4697 65.4716 49.2444 65.6056 48.8852 65.6056C48.8852 65.6056 41.7261 65.5949 41.5921 65.5949C41.3239 65.5949 41.029 65.4984 41.0344 65.1605C41.0344 65.0265 41.1684 64.8924 41.4419 64.8012C42.9756 64.265 43.0239 64.1792 43.0239 61.9001V55.9798C43.0239 52.8964 41.3078 51.0248 38.514 51.0248C35.9399 51.0248 34.181 52.4566 34.181 54.6392V61.8572C34.181 62.3988 34.2132 62.9297 34.2132 63.407C34.4277 64.6565 37.0768 64.5492 37.0821 64.7155C37.0875 64.9192 37.0124 65.0426 36.8355 65.064C36.8355 65.064 31.7786 65.611 31.7571 65.6056C31.1726 65.5788 31.1243 65.4716 31.0332 62.7474C30.2234 63.7716 29.8159 64.1792 29.226 64.6243C28.0998 65.4287 26.2927 66.0078 24.8019 66.0078C23.0429 66.0078 21.0588 65.2463 20.0185 64.2221C18.8441 63.1067 18.2113 61.2298 18.2113 59.0419C18.2113 58.8166 18.2113 58.5056 18.2542 58.1463V57.4331V52.3601C18.2542 49.9845 15.6158 50.2043 15.5461 49.904C15.4603 49.5126 18.7261 49.2981 20.7799 48.9227C21.225 48.8423 21.3216 49.0568 21.3216 50.3062L21.2304 57.8782V58.8595C21.2304 62.1629 23.2146 64.442 26.1479 64.442C28.9471 64.442 31.2477 62.431 31.0224 60.109V59.9749V52.4888C31.06 49.6466 28.2715 50.2097 28.2715 49.8987C28.2715 49.4053 32.2826 49.0246 33.5911 48.794C33.8485 48.7511 34.1703 48.8315 34.1703 49.8129V52.2153C35.7951 50.2526 37.7793 49.2713 40.0798 49.2713C42.5627 49.2713 44.0481 50.2097 45.4477 52.5317C47.1638 50.3009 49.1479 49.2713 51.6737 49.2713C51.8721 49.2713 52.0705 49.282 52.2582 49.2981C52.2957 49.3034 52.3386 49.2981 52.3815 49.3034C53.9528 49.4429 55.2291 50.0649 56.1622 51.0838C56.7306 51.7059 57.1703 52.4834 57.4653 53.3897C57.4921 53.4701 57.5082 53.5506 57.535 53.631C57.7709 54.6606 57.7173 55.5937 57.7173 55.5937V61.825C57.7173 62.6187 57.8514 63.2568 58.1141 63.7448C58.3769 64.2328 58.7362 64.6082 59.1974 64.871C59.6532 65.1337 60.1841 65.3107 60.7847 65.4019C60.9188 65.4233 61.0582 65.4394 61.1922 65.4555C61.1064 65.5413 61.9966 65.5895 61.8143 65.5895C61.632 65.5895 53.6686 65.5788 53.5291 65.5788C53.2181 65.5949 52.9446 65.434 52.9446 65.1552ZM69.6329 49.2713L72.9577 60.3664H73.0167L76.3415 49.3356H80.6423L75.3065 65.5895H70.4909L66.1204 52.6014H63.0852V60.4093C63.0852 61.1386 63.2086 61.6266 63.4499 61.8733C63.6912 62.1146 64.1792 62.2379 64.9139 62.2379C65.1552 62.2379 65.3911 62.2272 65.6164 62.2058C65.8416 62.1843 66.0561 62.1575 66.2545 62.1146V65.4716C65.8899 65.5306 65.4823 65.5735 65.0372 65.5949C64.5867 65.6164 64.2221 65.6271 63.7985 65.6271C63.7985 65.2892 63.777 64.9031 63.777 64.9031L62.313 64.7369C62.1843 64.7208 62.0556 64.7047 61.9323 64.6886C61.4228 64.6082 60.9777 64.4634 60.6024 64.2435C60.2592 64.0451 59.9964 63.7716 59.798 63.4016C59.5942 63.0262 59.4869 62.4953 59.4869 61.8304V55.6205C59.4923 55.4543 59.5245 54.5105 59.2832 53.4755L59.251 53.3575C59.2349 53.2932 59.2188 53.2288 59.1974 53.1698C58.8703 52.1617 58.3823 51.2983 57.7387 50.5958C57.24 50.0488 56.6555 49.6145 55.9959 49.282H58.7523V47.5392V44.9919H63.0799V47.5392V49.282H69.6329V49.2713ZM87.5385 87.4635C87.5385 89.6889 86.3963 90.992 85.0181 90.3378L58.6343 73.2044C56.3177 71.9764 55.8833 70.9575 55.8833 69.0323V66.9731H57.4921V69.5847C57.4921 70.0726 57.8085 70.6304 58.1892 70.8234L84.203 86.0317V27.1024L58.1999 41.2649C57.669 41.5921 57.4921 42.3804 57.4921 42.8576V47.3997H55.8833V42.804C55.8833 41.2649 56.5536 40.1066 58.8381 38.7606L85.002 22.6408C86.3963 22.0241 87.5385 23.3486 87.5385 25.5848V87.4635Z" fill="#6E56C5"/>
</svg>
