<svg width="1729" height="1058" viewBox="0 0 1729 1058" fill="none" xmlns="http://www.w3.org/2000/svg">
<path d="M920.974 410.202C920.974 409.964 920.974 409.964 920.736 409.725C912.157 383.994 911.919 352.069 936.224 317.523C955.525 290.125 976.018 266.538 971.729 223.415C971.729 222.938 971.49 218.65 975.779 216.744C980.783 214.6 983.881 218.888 983.881 219.126C1006.04 256.055 1011.05 295.842 999.37 327.053C984.119 368.508 950.283 379.944 932.888 411.87C931.697 413.776 929.314 415.205 926.693 414.967C924.548 414.967 921.927 413.061 920.974 410.202Z" fill="#F5F9FD"/>
<path d="M803.499 431.168C731.537 404.007 671.727 309.184 747.979 207.691C814.46 119.3 861.641 68.5532 845.914 8.27629C845.676 7.08504 845.199 2.79657 849.012 0.890626C854.969 -2.20661 858.305 3.7498 858.543 3.98805C897.384 68.077 862.117 144.078 805.405 231.277C773.475 280.595 755.842 358.264 810.886 420.208C813.745 423.544 813.507 426.879 811.839 429.262C810.171 431.168 807.55 432.597 803.499 431.168Z" fill="#F5F9FD"/>
<path d="M594.523 482.868C604.292 480.962 639.559 474.053 712.712 454.754C758.701 442.604 810.886 451.181 832.093 473.1C851.156 492.636 858.066 516.699 859.496 520.511C861.641 526.229 864.024 539.094 864.024 539.094C864.024 539.094 871.649 518.367 874.27 514.793C875.938 512.172 885.708 511.934 892.856 492.636C898.337 478.341 893.094 458.09 866.883 439.745C810.648 400.195 803.737 304.896 852.586 233.183C898.098 166.235 914.302 122.874 907.868 87.8519C907.868 87.3754 907.153 82.6104 911.204 80.4662C915.493 78.3219 919.068 81.6572 919.544 82.1337C977.448 159.088 930.982 235.327 903.102 276.068C875.938 315.617 866.883 349.21 875.461 387.807C877.129 396.145 878.559 408.534 885.946 421.876C892.856 432.597 903.817 461.664 921.689 455.231C949.806 444.748 977.447 451.419 1024.39 461.425C1090.87 475.482 1122.56 481.676 1131.38 483.344C1134.24 483.821 1135.67 485.965 1136.15 486.68C1136.38 487.156 1184.28 552.198 1184.28 552.198C1184.28 552.198 1186.9 555.295 1184.99 558.869C1183.8 560.775 1181.9 563.396 1177.37 562.443C1137.58 554.819 1037.5 535.759 996.749 530.041C943.134 522.417 892.856 529.564 869.504 556.725C868.551 557.916 866.883 559.822 863.785 559.822C860.688 559.822 859.02 558.154 858.066 556.725C835.191 529.803 785.866 522.179 734.396 529.564C694.126 535.282 591.901 554.581 551.393 562.443C546.627 563.634 543.291 561.013 542.576 557.916C541.623 554.819 544.006 551.96 544.006 551.96L589.995 485.488C590.233 485.012 591.425 483.344 594.523 482.868Z" fill="#F5F9FD"/>
<path d="M102.225 797.116C102.225 824.515 85.7828 845.719 50.5165 845.719C17.3948 845.719 0 826.182 0 796.639V711.346H16.6802V797.354C16.6802 818.797 28.1177 831.424 51.4697 831.424C75.5365 831.424 85.5445 817.367 85.5445 797.354V711.585H101.986V797.116H102.225Z" fill="#F5F9FD"/>
<path d="M239.477 843.813L168.468 733.742H167.753C168.23 742.557 169.183 756.137 169.183 769.717V843.813H153.694V711.346H172.996L243.766 820.941H244.481C244.004 814.985 243.29 798.069 243.29 786.156V711.346H258.778V843.813H239.477Z" fill="#F5F9FD"/>
<path d="M301.432 843.813L306.912 829.041H316.92V726.118H301.432V711.346H349.327L343.847 726.118H333.839V829.041H349.327V843.813H301.432Z" fill="#F5F9FD"/>
<path d="M446.071 843.813H429.391L381.972 711.346H399.367L429.153 796.401C432.966 807.361 435.587 816.652 437.493 825.468C439.161 816.652 442.02 807.361 445.833 796.163L475.619 711.585H493.252L446.071 843.813Z" fill="#F5F9FD"/>
<path d="M531.377 843.813V711.346H605.483V726.118H548.056V767.573H597.858V782.106H548.056V829.518H609.534L604.054 844.289H531.377V843.813Z" fill="#F5F9FD"/>
<path d="M735.826 748.99C735.826 770.194 722.72 779.724 709.376 784.489L745.834 843.813H726.295L694.126 789.016H667.676V843.813H650.996V711.346H687.692C720.337 711.346 735.826 723.735 735.826 748.99ZM667.676 725.641V774.721H687.454C708.9 774.721 718.431 766.144 718.431 749.466C718.431 732.312 708.185 725.641 686.501 725.641H667.676Z" fill="#F5F9FD"/>
<path d="M816.604 845.719C801.831 845.719 788.487 843.575 780.147 839.525L785.389 825.706C791.108 828.327 803.26 831.186 817.319 831.186C837.097 831.186 847.105 823.086 847.105 809.744C847.105 796.64 839.956 791.16 815.89 782.345C793.252 774.245 781.815 763.524 781.815 743.034C781.815 722.068 798.971 709.203 824.23 709.203C838.765 709.203 850.679 712.062 860.926 716.589L855.445 730.884C846.152 727.072 835.429 723.736 823.991 723.736C807.55 723.736 798.971 731.598 798.971 743.034C798.971 756.376 806.358 761.856 828.042 769.718C851.394 778.533 864.262 787.11 864.262 808.076C863.785 831.901 845.437 845.719 816.604 845.719Z" fill="#F5F9FD"/>
<path d="M899.289 843.813L904.77 829.041H914.778V726.118H899.289V711.346H947.185L941.704 726.118H931.696V829.041H947.185V843.813H899.289Z" fill="#F5F9FD"/>
<path d="M1026.53 843.813H989.601V711.346H1030.35C1070.38 711.346 1095.64 733.742 1095.64 776.388C1095.88 820.941 1070.14 843.813 1026.53 843.813ZM1027.96 725.641H1006.28V829.518H1024.39C1060.13 829.518 1078.24 811.649 1078.24 776.865C1078.24 741.604 1059.89 725.641 1027.96 725.641Z" fill="#F5F9FD"/>
<path d="M1206.44 802.836H1153.78L1138.05 843.815H1121.13L1172.84 710.634H1187.85L1239.56 843.815H1222.4L1206.44 802.836ZM1186.66 747.801C1185.47 744.942 1181.66 732.553 1180.47 728.026C1178.56 735.65 1176.18 743.512 1174.75 747.801L1159.74 787.826H1201.67L1186.66 747.801Z" fill="#F5F9FD"/>
<path d="M1314.62 843.813H1277.69V711.346H1318.43C1358.47 711.346 1383.72 733.742 1383.72 776.388C1383.96 820.941 1358.23 843.813 1314.62 843.813ZM1316.29 725.641H1294.61V829.518H1312.72C1348.46 829.518 1366.57 811.649 1366.57 776.865C1366.33 741.604 1348.22 725.641 1316.29 725.641Z" fill="#F5F9FD"/>
<path d="M1535.51 843.813H1498.58V711.346H1539.33C1579.36 711.346 1604.62 733.742 1604.62 776.388C1604.85 820.941 1579.12 843.813 1535.51 843.813ZM1537.18 725.641H1515.5V829.518H1533.61C1569.35 829.518 1587.46 811.649 1587.46 776.865C1587.22 741.604 1569.11 725.641 1537.18 725.641Z" fill="#F5F9FD"/>
<path d="M1650.84 843.813V711.346H1724.95V726.118H1667.52V767.573H1717.32V782.106H1667.52V829.518H1729L1723.52 844.289H1650.84V843.813Z" fill="#F5F9FD"/>
<path d="M15.0122 938.161H14.2973C15.2505 947.214 15.7268 959.365 15.7268 974.613V1056.33H0V921.722H25.0197L66.4819 1032.03H67.1967L109.373 921.722H134.155V1056.33H117.475V973.66C117.475 962.939 117.951 951.264 118.904 938.637H118.189L73.3917 1056.57H59.3328L15.0122 938.161Z" fill="#F5F9FD"/>
<path d="M299.049 1025.12C294.283 1035.6 287.373 1043.7 278.08 1049.42C268.787 1055.14 257.587 1058 244.243 1058C223.751 1058 208.262 1051.8 197.777 1039.41C187.293 1027.03 182.051 1010.11 182.051 988.429C182.051 966.987 187.293 950.309 197.777 937.92C208.262 925.531 223.751 919.337 244.243 919.337C257.349 919.337 268.787 922.196 278.08 927.914C287.373 933.632 294.283 941.494 299.049 951.977C303.815 962.46 306.198 974.611 306.198 988.667C306.198 1002.49 303.815 1014.87 299.049 1025.12ZM210.884 1029.17C218.27 1038.7 229.231 1043.46 244.243 1043.46C259.017 1043.46 270.216 1038.7 277.365 1029.17C284.752 1019.64 288.326 1006.3 288.326 988.667C288.326 971.275 284.752 957.695 277.603 948.403C270.455 939.112 259.255 934.347 244.482 934.347C229.47 934.347 218.27 939.112 211.121 948.403C203.735 957.933 200.16 971.275 200.16 988.667C199.922 1006.06 203.735 1019.64 210.884 1029.17Z" fill="#F5F9FD"/>
<path d="M440.828 1056.09L368.866 944.355H368.151C369.104 960.08 369.58 972.23 369.58 980.807V1056.09H353.854V921.483H373.393L445.117 1032.98H445.832C444.879 1018.93 444.402 1007.01 444.402 997.485V921.483H460.129V1056.09H440.828Z" fill="#F5F9FD"/>
<path d="M542.338 1056.09V936.493H500.4L506.119 921.483H601.433V936.493H559.495V1056.09H542.338Z" fill="#F5F9FD"/>
<path d="M640.75 1056.09V921.483H716.048V936.493H657.907V978.425H708.423V993.196H657.907V1041.32H720.338L714.619 1056.33H640.75V1056.09Z" fill="#F5F9FD"/>
<path d="M777.287 938.161H776.572C777.526 947.214 778.002 959.365 778.002 974.613V1056.33H762.275V921.722H787.295L828.757 1032.03H829.472L871.648 921.722H896.43V1056.33H879.75V973.66C879.75 962.939 880.227 951.264 881.18 938.637H880.465L835.667 1056.57H821.608L777.287 938.161Z" fill="#F5F9FD"/>
<path d="M1061.32 1025.12C1056.56 1035.6 1049.65 1043.7 1040.35 1049.42C1031.06 1055.14 1019.86 1058 1006.52 1058C986.026 1058 970.537 1051.8 960.053 1039.41C949.568 1027.03 944.326 1010.11 944.326 988.429C944.326 966.987 949.568 950.309 960.053 937.92C970.537 925.531 986.026 919.337 1006.52 919.337C1019.62 919.337 1031.06 922.196 1040.35 927.914C1049.65 933.632 1056.56 941.494 1061.32 951.977C1066.09 962.46 1068.47 974.611 1068.47 988.667C1068.47 1002.49 1066.09 1014.87 1061.32 1025.12ZM973.158 1029.17C980.545 1038.7 991.506 1043.46 1006.52 1043.46C1021.29 1043.46 1032.49 1038.7 1039.64 1029.17C1047.03 1019.64 1050.6 1006.3 1050.6 988.667C1050.6 971.275 1047.03 957.695 1039.88 948.403C1032.73 939.112 1021.53 934.347 1006.76 934.347C991.745 934.347 980.545 939.112 973.397 948.403C966.01 957.933 962.436 971.275 962.436 988.667C962.197 1006.06 966.01 1019.64 973.158 1029.17Z" fill="#F5F9FD"/>
<path d="M1190.24 931.013C1198.34 937.446 1202.39 946.976 1202.39 959.841C1202.39 977.472 1193.33 989.622 1175.46 995.817L1212.4 1056.09H1192.62L1159.97 1000.58H1133.29V1056.09H1116.37V921.483H1153.54C1169.74 921.483 1182.13 924.58 1190.24 931.013ZM1133.05 936.255V986.287H1153.3C1164.02 986.287 1172.13 984.143 1177.13 979.854C1182.13 975.566 1184.76 969.133 1184.76 960.556C1184.76 951.979 1182.13 945.546 1176.89 941.973C1171.65 938.161 1163.55 936.255 1152.35 936.255H1133.05Z" fill="#F5F9FD"/>
<path d="M1252.43 1056.09V921.483H1327.73V936.493H1269.59V978.425H1320.1V993.196H1269.59V1041.32H1332.02L1326.3 1056.33H1252.43V1056.09Z" fill="#F5F9FD"/>
<path d="M1373.96 921.483H1390.87V1041.08H1452.83L1447.11 1056.09H1373.72V921.483H1373.96Z" fill="#F5F9FD"/>
<path d="M1599.13 1025.12C1594.37 1035.6 1587.46 1043.7 1578.17 1049.42C1568.87 1055.14 1557.67 1058 1544.33 1058C1523.84 1058 1508.35 1051.8 1497.86 1039.41C1487.38 1027.03 1482.14 1010.11 1482.14 988.429C1482.14 966.987 1487.38 950.309 1497.86 937.92C1508.35 925.531 1523.84 919.337 1544.33 919.337C1557.43 919.337 1568.87 922.196 1578.17 927.914C1587.46 933.632 1594.37 941.494 1599.13 951.977C1603.9 962.46 1606.28 974.611 1606.28 988.667C1606.28 1002.49 1603.9 1014.87 1599.13 1025.12ZM1510.97 1029.17C1518.36 1038.7 1529.32 1043.46 1544.33 1043.46C1559.1 1043.46 1570.3 1038.7 1577.45 1029.17C1584.84 1019.64 1588.41 1006.3 1588.41 988.667C1588.41 971.275 1584.84 957.695 1577.69 948.403C1570.54 939.112 1559.34 934.347 1544.57 934.347C1529.56 934.347 1518.36 939.112 1511.21 948.403C1503.82 957.933 1500.25 971.275 1500.25 988.667C1500.01 1006.06 1503.58 1019.64 1510.97 1029.17Z" fill="#F5F9FD"/>
<path d="M1716.13 1047.99C1707.55 1054.66 1695.88 1058 1680.87 1058C1673.24 1058 1666.33 1057.52 1659.9 1056.33C1653.46 1055.14 1648.22 1053.71 1643.93 1051.57L1649.17 1037.51C1652.51 1038.94 1657.04 1040.37 1662.99 1041.56C1668.71 1042.75 1674.91 1043.23 1681.58 1043.23C1691.35 1043.23 1698.98 1041.32 1704.22 1037.51C1709.46 1033.7 1712.08 1028.46 1712.08 1021.55C1712.08 1017.26 1711.13 1013.45 1709.22 1010.35C1707.32 1007.25 1704.22 1004.63 1699.69 1002.01C1695.16 999.389 1688.73 996.768 1680.39 993.671C1668.48 989.382 1659.66 984.141 1654.18 978.185C1648.7 971.99 1645.84 963.89 1645.84 953.883C1645.84 943.4 1649.89 935.062 1657.75 928.867C1665.62 922.673 1676.1 919.575 1688.97 919.575C1702.31 919.575 1714.7 922.196 1726.14 927.199L1720.66 941.733C1709.46 936.968 1698.74 934.585 1688.49 934.585C1680.39 934.585 1673.96 936.253 1669.67 939.827C1665.38 943.4 1662.99 948.165 1662.99 954.122C1662.99 958.648 1663.95 962.46 1665.62 965.319C1667.52 968.416 1670.38 971.037 1674.67 973.42C1678.72 975.802 1684.68 978.423 1692.3 981.282C1700.88 984.379 1707.79 987.715 1713.03 990.812C1718.28 994.147 1722.33 997.959 1724.95 1002.72C1727.81 1007.49 1729 1013.21 1729 1019.88C1729 1032.03 1724.71 1041.32 1716.13 1047.99Z" fill="#F5F9FD"/>
</svg>
