<svg width="5409" height="545" viewBox="0 0 5409 545" fill="none" xmlns="http://www.w3.org/2000/svg">
<path d="M95.9691 329.359C95.9691 338.171 94.0081 346.004 90.5807 353.347C87.1533 360.201 81.2801 365.586 74.4253 369.502C67.0808 373.418 58.2679 375.377 47.4959 375.377C32.3173 375.377 20.075 371.46 12.2409 362.648C3.91711 354.326 0 343.067 0 328.87V248.095H15.6688V329.359C15.6688 339.64 18.6056 347.473 23.9916 353.347C29.3775 358.732 37.7013 361.669 48.4732 361.669C59.2452 361.669 67.5689 358.732 72.9549 352.857C78.3409 346.983 80.7905 339.15 80.7905 329.359V248.095H96.4592V329.359H95.9691Z" fill="white"/>
<path d="M279.581 373.908L212.502 269.635H212.012C212.991 284.321 213.479 295.58 213.479 303.903V373.908H198.791V248.095H216.907L283.987 352.368H284.477C283.497 339.15 283.009 328.381 283.009 319.079V248.095H297.698V373.908H279.581Z" fill="white"/>
<path d="M391.706 373.908L397.091 359.712H406.395V261.802H391.706V248.095H437.242L431.857 261.802H422.553V359.712H437.242V373.908H391.706Z" fill="white"/>
<path d="M582.173 373.908H566.505L521.463 248.095H538.106L566.505 328.87C569.932 338.661 572.38 347.473 574.339 356.284C575.808 348.452 578.256 339.15 582.173 328.38L610.577 248.095H627.219L582.173 373.908Z" fill="white"/>
<path d="M716.331 373.908V248.095H786.348V261.802H731.999V300.965H779.008V314.673H731.999V359.712H790.265L784.884 373.419H716.331V373.908Z" fill="white"/>
<path d="M952.335 256.907C959.68 262.781 963.597 271.593 963.597 283.832C963.597 300.476 955.273 311.736 938.626 317.611L972.9 373.908H954.294L923.937 322.016H898.965V373.908H883.297V248.095H918.061C933.24 248.095 944.991 251.032 952.335 256.907ZM898.965 261.802V308.309H917.571C927.854 308.309 935.198 306.35 939.605 302.434C944.012 298.518 946.954 292.644 946.954 284.321C946.954 275.999 944.501 270.614 939.605 266.698C934.708 263.271 926.879 261.313 916.597 261.313H898.965V261.802Z" fill="white"/>
<path d="M1126.16 366.073C1118.32 372.437 1107.06 375.374 1093.35 375.374C1086.5 375.374 1079.64 374.885 1073.77 373.906C1067.89 372.927 1062.99 371.458 1058.59 369.5L1063.49 356.282C1066.43 357.751 1070.83 358.73 1076.21 360.198C1081.6 361.177 1087.48 361.667 1093.85 361.667C1103.15 361.667 1110 359.709 1114.89 356.282C1119.79 352.855 1122.24 347.96 1122.24 341.596C1122.24 337.679 1121.26 334.253 1119.79 331.316C1117.83 328.378 1114.89 325.93 1110.98 323.483C1107.06 321.035 1100.69 318.587 1092.86 315.65C1081.6 311.733 1073.77 306.838 1068.38 300.963C1062.99 295.088 1060.55 287.745 1060.55 277.954C1060.55 268.163 1064.46 260.331 1071.81 254.457C1079.15 248.582 1088.94 245.645 1100.69 245.645C1113.43 245.645 1124.69 248.093 1135.46 252.499L1130.57 266.206C1119.8 261.8 1110 259.352 1100.69 259.352C1092.86 259.352 1086.99 260.821 1083.07 264.248C1079.15 267.674 1076.7 272.08 1076.7 277.465C1076.7 281.871 1077.68 285.298 1079.15 288.235C1080.62 291.173 1083.56 293.62 1087.48 295.578C1091.4 297.536 1096.78 299.984 1104.12 302.922C1111.96 305.859 1118.32 308.796 1123.22 311.733C1128.11 314.671 1132.03 318.588 1134.48 322.993C1136.93 327.399 1138.4 332.783 1138.4 339.147C1138.4 351.386 1134.48 359.709 1126.16 366.073Z" fill="white"/>
<path d="M1225.56 373.908L1230.94 359.712H1240.24V261.802H1225.56V248.095H1271.09L1265.7 261.802H1256.4V359.712H1271.09V373.908H1225.56Z" fill="white"/>
<path d="M1447.84 357.264C1436.58 368.034 1420.42 373.418 1399.37 373.418H1364.12V247.605H1402.8C1421.9 247.605 1437.07 252.99 1448.33 263.76C1459.6 274.53 1464.98 289.706 1464.98 309.288C1464.98 330.828 1459.6 346.494 1447.84 357.264ZM1436.09 273.551C1427.77 265.718 1416.02 261.802 1400.84 261.802H1380.27V360.2H1397.41C1414.55 360.2 1427.28 355.795 1435.6 347.473C1443.93 339.15 1448.33 326.422 1448.33 310.267C1448.33 293.622 1444.42 281.384 1436.09 273.551Z" fill="white"/>
<path d="M1623.63 334.743H1573.68L1558.5 373.418H1542.34L1591.31 247.115H1605.51L1654.47 373.418H1638.32L1623.63 334.743ZM1604.53 282.852C1603.55 280.404 1602.57 277.467 1601.59 274.04C1600.62 270.614 1599.64 267.186 1598.66 264.249C1596.7 271.103 1595.22 277.467 1593.27 282.852L1579.07 321.036H1618.73L1604.53 282.852Z" fill="white"/>
<path d="M1827.8 357.264C1816.54 368.034 1800.39 373.418 1779.33 373.418H1744.07V247.605H1782.76C1801.85 247.605 1817.03 252.99 1828.29 263.76C1839.56 274.53 1844.94 289.706 1844.94 309.288C1844.94 330.828 1839.55 346.494 1827.8 357.264ZM1816.05 273.551C1807.73 265.718 1795.97 261.802 1780.8 261.802H1760.23V360.2H1777.37C1794.51 360.2 1807.24 355.795 1815.56 347.473C1823.88 339.15 1828.29 326.422 1828.29 310.267C1828.29 293.622 1824.38 281.384 1816.05 273.551Z" fill="white"/>
<path d="M2143.12 357.264C2131.86 368.034 2115.71 373.418 2094.66 373.418H2059.4V247.605H2098.08C2117.17 247.605 2132.36 252.99 2143.62 263.76C2154.88 274.53 2160.26 289.706 2160.26 309.288C2160.26 330.828 2154.39 346.494 2143.12 357.264ZM2131.38 273.551C2123.05 265.718 2111.3 261.802 2096.12 261.802H2075.55V360.2H2092.69C2109.83 360.2 2122.56 355.795 2130.88 347.473C2139.21 339.15 2143.62 326.422 2143.62 310.267C2143.62 293.622 2139.7 281.384 2131.38 273.551Z" fill="white"/>
<path d="M2257.7 373.908V248.095H2327.71V261.802H2273.37V300.965H2320.37V314.673H2273.37V359.712H2331.63L2326.25 373.419H2257.7V373.908Z" fill="white"/>
<path d="M3223.25 263.27H3222.76C3223.74 271.593 3224.23 282.852 3224.23 297.049V373.418H3209.54V247.605H3233.05L3271.73 350.41H3272.22L3311.88 247.605H3334.89V373.418H3319.22V296.07C3319.22 285.79 3319.71 275.019 3320.69 263.27H3320.2L3278.09 373.418H3264.87L3223.25 263.27Z" fill="white"/>
<path d="M3541.52 345.023C3537.11 354.814 3530.74 362.157 3521.93 367.542C3513.12 372.927 3502.84 375.375 3490.11 375.375C3471.01 375.375 3456.32 369.5 3446.53 357.751C3436.73 346.002 3431.84 330.337 3431.84 310.265C3431.84 290.194 3436.73 274.528 3446.53 263.269C3456.32 252.009 3471.01 246.135 3490.11 246.135C3502.35 246.135 3513.12 248.583 3521.44 253.968C3530.25 259.353 3536.62 266.696 3541.03 276.487C3545.43 286.278 3547.39 297.538 3547.39 310.755C3548.37 323.483 3545.92 335.233 3541.52 345.023ZM3459.26 348.45C3466.12 357.262 3476.4 361.667 3490.11 361.667C3503.82 361.667 3514.1 357.262 3520.96 348.45C3527.81 339.638 3531.23 326.91 3531.23 310.755C3531.23 294.6 3527.81 281.872 3520.96 273.06C3514.1 264.248 3503.82 259.842 3490.11 259.842C3475.91 259.842 3465.62 264.248 3458.77 273.06C3451.91 281.872 3448.49 294.111 3448.49 310.755C3448.97 326.91 3452.41 339.638 3459.26 348.45Z" fill="white"/>
<path d="M3727.09 373.908L3660.01 269.635H3659.52C3660.5 284.321 3660.99 295.58 3660.99 303.903V373.908H3646.3V248.095H3664.42L3731.5 352.368H3731.99C3731.01 339.15 3730.51 328.381 3730.51 319.079V248.095H3745.2V373.908H3727.09Z" fill="white"/>
<path d="M3874.96 373.908V262.292H3835.79L3841.17 248.585H3930.28V262.292H3891.12V373.908H3874.96Z" fill="white"/>
<path d="M4020.38 373.908V248.095H4090.39V261.802H4036.05V300.965H4083.05V314.673H4036.05V359.712H4094.31L4088.93 373.419H4020.38V373.908Z" fill="white"/>
<path d="M4201.05 263.27H4200.56C4201.54 271.593 4202.03 282.852 4202.03 297.049V373.418H4187.34V247.605H4210.84L4249.52 350.41H4250.01L4289.67 247.605H4312.69V373.418H4297.02V296.07C4297.02 285.79 4297.51 275.019 4298.49 263.27H4298L4255.89 373.418H4242.67L4201.05 263.27Z" fill="white"/>
<path d="M4519.31 345.023C4514.9 354.814 4508.54 362.157 4499.73 367.542C4490.92 372.927 4480.63 375.375 4467.9 375.375C4448.8 375.375 4434.11 369.5 4424.32 357.751C4414.53 346.002 4409.63 330.337 4409.63 310.265C4409.63 290.194 4414.53 274.528 4424.32 263.269C4434.11 252.009 4448.8 246.135 4467.9 246.135C4480.14 246.135 4490.91 248.583 4499.24 253.968C4508.05 259.353 4514.41 266.696 4518.82 276.487C4523.23 286.278 4525.19 297.538 4525.19 310.755C4526.17 323.483 4524.21 335.233 4519.31 345.023ZM4437.05 348.45C4443.91 357.262 4454.19 361.667 4467.9 361.667C4481.61 361.667 4491.89 357.262 4498.75 348.45C4505.6 339.638 4509.03 326.91 4509.03 310.755C4509.03 294.6 4505.6 281.872 4498.75 273.06C4491.89 264.248 4481.61 259.842 4467.9 259.842C4453.7 259.842 4443.42 264.248 4436.56 273.06C4429.71 281.872 4426.29 294.111 4426.29 310.755C4426.77 326.91 4430.2 339.638 4437.05 348.45Z" fill="white"/>
<path d="M4693.13 256.907C4700.47 262.781 4704.39 271.593 4704.39 283.832C4704.39 300.476 4696.07 311.736 4679.42 317.611L4713.69 373.908H4695.09L4664.73 322.016H4639.76V373.908H4624.09V248.095H4658.86C4674.04 248.095 4685.3 251.032 4693.13 256.907ZM4639.76 261.802V308.309H4658.37C4668.65 308.309 4676 306.35 4680.4 302.434C4685.3 298.518 4687.74 292.644 4687.74 284.321C4687.74 275.999 4685.3 270.614 4680.4 266.698C4675.51 263.271 4667.67 261.313 4657.39 261.313H4639.76V261.802Z" fill="white"/>
<path d="M4804.28 373.908V248.095H4874.32V261.802H4819.95V300.965H4866.98V314.673H4819.95V359.712H4878.24L4872.85 373.419H4804.28V373.908Z" fill="white"/>
<path d="M4970.78 248.095H4986.45V359.712H5044.22L5038.84 373.908H4970.29V248.095H4970.78Z" fill="white"/>
<path d="M5234.69 345.023C5230.28 354.814 5223.92 362.157 5215.11 367.542C5206.29 372.927 5196.01 375.375 5183.28 375.375C5164.18 375.375 5149.49 369.5 5139.7 357.751C5129.91 346.002 5125.01 330.337 5125.01 310.265C5125.01 290.194 5129.91 274.528 5139.7 263.269C5149.49 252.009 5164.18 246.135 5183.28 246.135C5195.52 246.135 5206.29 248.583 5214.62 253.968C5223.43 259.353 5229.79 266.696 5234.2 276.487C5238.61 286.278 5240.57 297.538 5240.57 310.755C5241.06 323.483 5239.1 335.233 5234.69 345.023ZM5151.94 348.45C5158.8 357.262 5169.08 361.667 5182.79 361.667C5196.5 361.667 5206.78 357.262 5213.64 348.45C5220.49 339.638 5223.92 326.91 5223.92 310.755C5223.92 294.6 5220.49 281.872 5213.64 273.06C5206.78 264.248 5196.5 259.842 5182.79 259.842C5168.59 259.842 5158.31 264.248 5151.45 273.06C5144.6 281.872 5141.17 294.111 5141.17 310.755C5141.66 326.91 5145.09 339.638 5151.94 348.45Z" fill="white"/>
<path d="M5396.76 366.073C5388.92 372.437 5377.66 375.374 5363.95 375.374C5357.1 375.374 5350.24 374.885 5344.37 373.906C5338.49 372.927 5333.6 371.458 5329.19 369.5L5334.09 356.282C5337.02 357.751 5341.43 358.73 5346.82 360.198C5352.2 361.177 5358.08 361.667 5364.44 361.667C5373.75 361.667 5380.6 359.709 5385.5 356.282C5390.39 352.855 5392.84 347.96 5392.84 341.596C5392.84 337.679 5391.86 334.253 5390.39 331.316C5388.43 328.378 5385.5 325.93 5381.58 323.483C5377.66 321.035 5371.3 318.587 5363.46 315.65C5352.2 311.733 5344.37 306.838 5338.98 300.963C5333.6 295.088 5331.15 287.745 5331.15 277.954C5331.15 268.163 5335.06 260.331 5342.41 254.457C5349.75 248.582 5359.55 245.645 5371.3 245.645C5384.03 245.645 5395.29 248.093 5406.06 252.499L5401.17 266.206C5390.39 261.8 5380.6 259.352 5371.3 259.352C5363.46 259.352 5357.59 260.821 5353.67 264.248C5349.75 267.674 5347.31 272.08 5347.31 277.465C5347.31 281.871 5348.28 285.298 5349.75 288.235C5351.22 291.173 5354.16 293.62 5358.08 295.578C5361.99 297.536 5367.38 299.984 5374.72 302.922C5382.56 305.859 5388.92 308.796 5393.82 311.733C5398.72 314.671 5402.63 318.588 5405.08 322.993C5407.53 327.399 5409 332.783 5409 339.147C5409 351.386 5405.08 359.709 5396.76 366.073Z" fill="white"/>
<path d="M2827.14 396.916V396.427C2818.82 371.46 2818.33 340.618 2842.32 307.329C2860.93 280.894 2881 257.885 2876.59 216.274C2876.59 215.784 2876.1 211.868 2880.51 209.91C2885.41 207.951 2888.34 211.868 2888.34 212.357C2909.89 248.094 2914.3 286.279 2903.52 316.63C2888.83 356.773 2856.03 368.033 2839.38 398.384C2838.4 400.343 2835.95 401.811 2833.51 401.322C2830.57 401.322 2827.63 399.364 2827.14 396.916Z" fill="white"/>
<path d="M2713.55 416.985C2644.02 390.55 2586.24 299.005 2659.69 201.096C2723.83 115.425 2769.36 66.4709 2754.19 8.21518C2753.7 7.23609 2753.7 2.83009 2757.12 0.871908C2763 -2.06536 2765.94 3.31988 2766.43 3.80942C2803.64 65.4923 2769.85 138.924 2715.02 223.615C2684.17 271.101 2667.03 346.491 2720.4 406.215C2723.34 409.153 2722.85 412.579 2721.38 415.027C2719.91 416.985 2717.46 418.454 2713.55 416.985Z" fill="white"/>
<path d="M2511.33 466.92C2520.63 464.962 2554.91 458.598 2625.9 439.995C2670.46 428.246 2720.89 436.568 2741.45 457.618C2760.06 476.711 2766.43 499.719 2767.9 503.636C2769.86 509.021 2772.3 521.749 2772.3 521.749C2772.3 521.749 2779.65 501.677 2782.1 498.251C2783.57 495.803 2793.36 495.313 2800.21 476.711C2805.6 463.003 2800.21 443.421 2775.24 425.798C2720.89 387.613 2714.04 295.579 2761.53 226.063C2805.6 161.443 2821.26 119.343 2814.9 85.5644C2814.9 85.0748 2814.41 80.6689 2818.33 78.7107C2822.74 76.7526 2826.16 79.6898 2826.16 80.1794C2882.47 154.59 2837.43 228.022 2810.5 267.675C2784.55 305.86 2775.73 338.169 2783.56 375.374C2785.03 383.207 2786.5 395.446 2793.85 408.174C2800.7 418.454 2810.99 446.848 2828.12 440.484C2855.54 430.693 2881.98 436.568 2927.51 446.358C2991.66 460.066 3022.51 465.941 3030.83 467.409C3033.77 467.899 3034.74 469.857 3035.23 470.836C3035.72 471.326 3081.75 533.987 3081.75 533.987C3081.75 533.987 3084.2 536.925 3082.24 540.352C3081.26 542.31 3079.3 544.757 3074.89 543.778C3036.21 536.435 2939.75 517.832 2900.09 512.447C2848.19 505.104 2799.72 511.958 2777.2 538.393C2776.22 539.372 2774.75 541.331 2771.81 541.331C2768.87 541.331 2767.41 539.862 2766.43 538.393C2744.4 512.447 2696.41 505.104 2646.96 511.958C2607.79 517.343 2509.37 535.946 2470.2 543.778C2465.79 544.757 2462.37 542.31 2461.88 539.372C2460.9 536.435 2463.35 533.498 2463.35 533.498L2507.9 469.368C2507.41 468.878 2508.39 467.409 2511.33 466.92Z" fill="white"/>
</svg>
