<svg width="107" height="72" viewBox="0 0 107 72" fill="none" xmlns="http://www.w3.org/2000/svg">
<path d="M48.7145 71.6867C71.905 71.6867 90.7047 70.3546 90.7047 68.7114C90.7047 67.0682 71.905 65.7362 48.7145 65.7362C25.5239 65.7362 6.72421 67.0682 6.72421 68.7114C6.72421 70.3546 25.5239 71.6867 48.7145 71.6867Z" fill="#EDEDED"/>
<path fill-rule="evenodd" clip-rule="evenodd" d="M52.5353 52.2495C51.0658 51.6427 49.4982 51.31 47.9307 51.31C46.3436 51.31 44.7957 51.6232 43.3457 52.23C41.9153 52.8368 40.5829 53.7176 39.4661 54.8529C38.2708 56.0665 38.2904 58.0239 39.5052 59.218L45.7754 65.4034C46.9706 66.5779 48.9104 66.5779 50.1057 65.4034L56.3954 59.2571C57.6102 58.0631 57.6298 56.1057 56.4346 54.8921C55.2981 53.7568 53.9853 52.8563 52.5353 52.2495Z" fill="#6E56C5"/>
<path fill-rule="evenodd" clip-rule="evenodd" d="M59.8635 39.5068C56.1994 37.6668 52.1239 36.6685 47.9307 36.6685C43.6984 36.6685 39.564 37.6864 35.8607 39.5851C32.1574 41.4642 28.9048 44.2046 26.4163 47.6496C25.417 49.0394 25.7305 50.9577 27.1021 51.956C28.4933 52.9542 30.4135 52.641 31.4324 51.2709C33.3527 48.6088 35.8411 46.5143 38.6627 45.0658C41.4842 43.6369 44.6389 42.8539 47.9307 42.8539C51.1637 42.8539 54.2792 43.6173 57.0812 45.0071C59.8831 46.4165 62.3716 48.4717 64.2918 51.0555C65.3107 52.4257 67.2505 52.7193 68.6221 51.7015C69.9937 50.6836 70.2876 48.7458 69.2687 47.3952C66.7215 44.0088 63.508 41.3272 59.8635 39.5068Z" fill="#6E56C5"/>
<path fill-rule="evenodd" clip-rule="evenodd" d="M66.4864 23.4364C60.7453 20.7547 54.4164 19.3258 47.9307 19.3258C41.4255 19.3258 35.077 20.7743 29.2967 23.4755C23.536 26.1768 18.3632 30.1307 14.1896 35.1221C13.0923 36.4336 13.2883 38.3715 14.5815 39.4676C15.8943 40.5638 17.8341 40.368 18.9314 39.0761C22.5171 34.7698 26.965 31.3835 31.9027 29.0737C36.8404 26.764 42.2876 25.5308 47.9111 25.5308C53.4759 25.5308 58.923 26.764 63.8411 29.0542C68.7789 31.3443 73.2072 34.7111 76.7929 38.9783C77.8902 40.2897 79.83 40.4659 81.1428 39.3697C82.4556 38.2736 82.6319 36.3357 81.5347 35.0243C77.3807 30.0329 72.2078 26.118 66.4864 23.4364Z" fill="#6E56C5"/>
<path fill-rule="evenodd" clip-rule="evenodd" d="M47.9307 7.18895C56.1603 7.18895 64.1743 8.98978 71.4437 12.3565C72.4822 12.8263 73.4815 13.3548 74.4808 13.8833C74.52 11.6715 74.951 9.53785 75.7152 7.58043C75.147 7.30639 74.5983 7.01278 74.0301 6.73874C65.9377 3.00008 57.042 1.00351 47.9307 1.00351C38.9174 1.00351 30.1196 2.96094 22.0665 6.64088C14.0329 10.3013 6.78303 15.6646 0.8852 22.496C-0.231666 23.7878 -0.0945148 25.7257 1.1987 26.8414C2.49191 27.9572 4.43173 27.8201 5.5486 26.5282C10.8782 20.3819 17.403 15.5471 24.6333 12.2587C31.8439 8.95062 39.7796 7.18895 47.9307 7.18895Z" fill="#6E56C5"/>
<path fill-rule="evenodd" clip-rule="evenodd" d="M92.8405 0.436691C85.2184 0.436691 79.0266 6.62214 79.0266 14.2365C79.0266 21.8508 85.2184 28.0363 92.8405 28.0363C100.463 28.0363 106.654 21.8508 106.654 14.2365C106.654 6.62214 100.463 0.436691 92.8405 0.436691ZM99.7964 18.5428C100.463 19.2083 100.463 20.2849 99.7964 20.9504C99.4633 21.2832 99.0322 21.4398 98.5815 21.4398C98.1505 21.4398 97.6998 21.2636 97.3667 20.9504L92.8992 16.4875L88.4318 20.9504C88.0987 21.2832 87.6676 21.4398 87.2169 21.4398C86.7859 21.4398 86.3352 21.2636 86.0021 20.9504C85.3359 20.2849 85.3359 19.2083 86.0021 18.5428L90.4696 14.0799L86.0021 9.61698C85.3359 8.95146 85.3359 7.87489 86.0021 7.20937C86.6683 6.54385 87.746 6.54385 88.4122 7.20937L92.8796 11.6723L97.3471 7.20937C98.0133 6.54385 99.091 6.54385 99.7572 7.20937C100.423 7.87489 100.423 8.95146 99.7572 9.61698L95.2897 14.0799L99.7964 18.5428Z" fill="#6E56C5"/>
</svg>
