<svg width="91" height="91" viewBox="0 0 91 91" fill="none" xmlns="http://www.w3.org/2000/svg">
<path d="M45.5104 88.4951C68.82 88.4951 87.7161 69.6182 87.7161 46.3323C87.7161 23.0464 68.82 4.16953 45.5104 4.16953C22.2008 4.16953 3.3046 23.0464 3.3046 46.3323C3.3046 69.6182 22.2008 88.4951 45.5104 88.4951Z" fill="#EDEDED"/>
<path d="M59.6769 53.242C58.7756 52.3416 57.5999 51.8914 56.4243 51.8914C55.2486 51.8914 54.073 52.3416 53.1717 53.242L45.8435 60.5627L30.3837 45.1187L37.7119 37.798C39.495 36.0167 39.495 33.0806 37.7119 31.2993L36.0856 29.6747C35.1843 28.7743 34.0086 28.3241 32.833 28.3241C31.6573 28.3241 30.4817 28.7743 29.5803 29.6747L22.2521 36.9954L15.0219 29.7726L9.67266 35.1163C-2.69124 47.4676 -3.10272 67.2767 8.47742 80.0978L1.12962 87.4381C0.463416 88.1036 0.463416 89.1997 1.12962 89.8848C1.79582 90.5504 2.89309 90.5504 3.57889 89.8848L10.9267 82.5445C17.138 88.1427 24.9757 90.9419 32.8134 90.9419C41.1997 90.9419 49.5664 87.7513 55.9541 81.3701L61.3032 76.0263L53.975 68.7056L61.3032 61.3848C63.0863 59.6036 63.0863 56.6675 61.3032 54.8862L59.6769 53.242ZM31.9904 32.1019C32.2843 31.8083 32.6174 31.7691 32.8134 31.7691C32.9897 31.7691 33.3424 31.8083 33.6363 32.1019L35.2626 33.7265C35.5566 34.0201 35.5957 34.3529 35.5957 34.5486C35.5957 34.7248 35.5566 35.0772 35.2626 35.3708L27.9344 42.6915L24.6818 39.4422L31.9904 32.1019ZM53.5048 78.9037C47.9792 84.4236 40.6314 87.4772 32.7938 87.4772C24.9757 87.4772 17.6279 84.4432 12.0828 78.9037C0.659381 67.492 0.659381 48.9357 12.0828 37.5435L14.9827 34.6465L56.3851 76.0068L53.5048 78.9037ZM58.854 58.9185L51.5258 66.2392L48.2732 62.9899L55.6013 55.6692C55.8953 55.3756 56.2283 55.3364 56.4243 55.3364C56.6006 55.3364 56.9533 55.3756 57.2472 55.6692L58.8736 57.2938C59.1675 57.5875 59.2067 57.9202 59.2067 58.116C59.1871 58.2921 59.1479 58.6445 58.854 58.9185Z" fill="#6E56C5"/>
<path d="M81.2893 56.0215C93.6532 43.6702 94.0647 23.8611 82.4845 11.0401L89.8519 3.68017C90.5181 3.01465 90.5181 1.91849 89.8519 1.2334C89.1857 0.567874 88.0884 0.567874 87.4026 1.2334L80.0353 8.59329C73.8239 3.01465 65.9862 0.215546 58.1486 0.215546C49.7623 0.215546 41.3956 3.40613 35.0079 9.78731L29.6587 15.1311L75.9597 61.3848L81.2893 56.0215ZM37.4376 12.2145C42.9631 6.69459 50.3109 3.64103 58.1486 3.64103C65.9667 3.64103 73.3145 6.67502 78.8596 12.2145C84.3852 17.7344 87.4419 25.0747 87.4419 32.9044C87.4419 40.7145 84.4048 48.0548 78.8596 53.5943L75.9597 56.4913L34.5573 15.1311L37.4376 12.2145Z" fill="#6E56C5"/>
<path d="M15.9036 18.674C16.5698 19.3395 17.6671 19.3395 18.3529 18.674C19.0191 18.0085 19.0191 16.9123 18.3529 16.2272L11.4557 9.33714C10.7895 8.67162 9.69225 8.67162 9.00646 9.33714C8.34026 10.0027 8.34026 11.0988 9.00646 11.7839L15.9036 18.674Z" fill="#6E56C5"/>
<path d="M22.8791 13.9958C23.8392 13.9958 24.6034 13.2324 24.6034 12.2733V2.5253C24.6034 1.56617 23.8392 0.80278 22.8791 0.80278C21.919 0.80278 21.1548 1.56617 21.1548 2.5253V12.2733C21.1548 13.2128 21.9386 13.9958 22.8791 13.9958Z" fill="#6E56C5"/>
<path d="M2.75495 24.9377H12.5128C13.473 24.9377 14.2371 24.1743 14.2371 23.2152C14.2371 22.2561 13.473 21.4927 12.5128 21.4927H2.75495C1.79483 21.4927 1.03068 22.2561 1.03068 23.2152C1.03068 24.1548 1.81443 24.9377 2.75495 24.9377Z" fill="#6E56C5"/>
<path d="M74.8232 72.5813C74.157 71.9157 73.0597 71.9157 72.3739 72.5813C71.7077 73.2468 71.7077 74.3429 72.3739 75.028L79.2711 81.9182C79.9373 82.5837 81.0345 82.5837 81.7203 81.9182C82.3865 81.2526 82.3865 80.1565 81.7203 79.4714L74.8232 72.5813Z" fill="#6E56C5"/>
<path d="M67.8477 77.2595C66.8876 77.2595 66.1234 78.0229 66.1234 78.9821V88.73C66.1234 89.6891 66.8876 90.4525 67.8477 90.4525C68.8078 90.4525 69.572 89.6891 69.572 88.73V78.9821C69.572 78.0425 68.8078 77.2595 67.8477 77.2595Z" fill="#6E56C5"/>
<path d="M87.9709 66.3176H78.213C77.2529 66.3176 76.4887 67.0809 76.4887 68.0401C76.4887 68.9992 77.2529 69.7626 78.213 69.7626H87.9709C88.931 69.7626 89.6952 68.9992 89.6952 68.0401C89.7148 67.1005 88.931 66.3176 87.9709 66.3176Z" fill="#6E56C5"/>
</svg>
