<svg width="644" height="563" viewBox="0 0 644 563" fill="none" xmlns="http://www.w3.org/2000/svg">
<path d="M378.623 410.202C378.623 409.964 378.623 409.964 378.384 409.725C369.806 383.994 369.568 352.069 393.873 317.523C413.174 290.124 433.667 266.538 429.377 223.415C429.377 222.938 429.139 218.65 433.428 216.744C438.432 214.6 441.53 218.888 441.53 219.126C463.69 256.055 468.695 295.842 457.019 327.053C441.768 368.508 407.932 379.944 390.537 411.87C389.345 413.776 386.963 415.205 384.341 414.967C382.197 414.967 379.576 413.061 378.623 410.202Z" fill="#F5F9FD"/>
<path d="M261.148 431.168C189.185 404.007 129.376 309.184 205.627 207.691C272.109 119.3 319.289 68.5532 303.563 8.27629C303.324 7.08504 302.848 2.79657 306.66 0.890626C312.617 -2.20661 315.953 3.7498 316.192 3.98805C355.032 68.077 319.766 144.078 263.054 231.277C231.124 280.595 213.491 358.264 268.535 420.208C271.394 423.544 271.156 426.879 269.488 429.262C267.82 431.168 265.199 432.597 261.148 431.168Z" fill="#F5F9FD"/>
<path d="M52.1713 482.868C61.941 480.962 97.2073 474.053 170.361 454.754C216.35 442.604 268.535 451.181 289.742 473.099C308.805 492.636 315.715 516.699 317.145 520.511C319.289 526.229 321.672 539.094 321.672 539.094C321.672 539.094 329.297 518.367 331.919 514.793C333.587 512.172 343.356 511.934 350.505 492.636C355.985 478.341 350.743 458.09 324.532 439.745C268.296 400.195 261.386 304.896 310.235 233.183C355.747 166.235 371.951 122.874 365.517 87.8518C365.517 87.3753 364.802 82.6103 368.853 80.4661C373.142 78.3219 376.716 81.6571 377.193 82.1336C435.096 159.088 388.631 235.327 360.751 276.068C333.587 315.617 324.532 349.21 333.11 387.806C334.778 396.145 336.208 408.534 343.595 421.876C350.505 432.597 361.466 461.664 379.337 455.231C407.455 444.748 435.096 451.419 482.038 461.425C548.52 475.482 580.212 481.676 589.029 483.344C591.888 483.821 593.318 485.965 593.794 486.68C594.033 487.156 641.928 552.198 641.928 552.198C641.928 552.198 644.549 555.295 642.643 558.869C641.452 560.775 639.545 563.396 635.018 562.443C595.224 554.819 495.144 535.759 454.397 530.041C400.783 522.417 350.505 529.564 327.153 556.725C326.2 557.916 324.532 559.822 321.434 559.822C318.336 559.822 316.668 558.154 315.715 556.725C292.84 529.803 243.515 522.179 192.045 529.564C151.775 535.282 49.5502 554.581 9.04163 562.443C4.27592 563.634 0.939905 561.013 0.225048 557.916C-0.728094 554.819 1.65475 551.96 1.65475 551.96L47.6439 485.488C47.8822 485.012 49.0736 483.344 52.1713 482.868Z" fill="#F5F9FD"/>
</svg>
