<svg width="354" height="354" viewBox="0 0 354 354" fill="none" xmlns="http://www.w3.org/2000/svg">
<path d="M177.355 354C274.937 354 354 274.938 354 177.356C354 79.775 274.937 0 177.355 0C79.7739 0 0 79.0631 0 176.645C0 274.226 79.4178 354 177.355 354ZM162.042 89.0342V66.5974C162.042 64.4606 164.178 62.3239 166.315 62.3239H188.039C190.176 62.3239 192.313 64.4606 192.313 66.5974V88.3223C214.749 89.7468 232.2 106.485 234.336 128.921C234.336 131.77 232.2 133.908 230.063 133.908H208.339C206.202 133.908 204.778 132.483 204.066 130.346C202.641 123.223 196.232 118.594 189.465 118.594H170.589C159.548 118.594 148.863 127.141 147.439 138.181C146.014 150.646 156.7 162.043 169.165 162.043H185.189C215.461 162.043 240.035 188.041 237.186 218.668C235.049 242.53 215.461 260.693 192.313 264.254V286.691C192.313 288.828 190.176 290.964 188.039 290.964H166.315C164.178 290.964 162.042 288.828 162.042 286.691V264.966C139.605 263.541 122.155 246.803 120.018 224.367C120.018 221.518 122.155 220.093 124.291 220.093H146.015C148.152 220.093 149.576 221.517 150.289 223.654C151.713 230.777 158.125 235.407 164.891 235.407H183.766C194.806 235.407 205.491 226.859 206.915 215.819C208.34 203.354 197.654 191.958 185.189 191.958H171.302C143.879 191.958 120.017 172.37 117.168 144.948C114.319 117.169 134.619 92.5956 162.042 89.0342Z" fill="#E2DEE4"/>
</svg>
