<svg width="307" height="354" viewBox="0 0 307 354" fill="none" xmlns="http://www.w3.org/2000/svg">
<path d="M18.938 311.354H111.022C111.022 334.968 129.784 354 153.066 354C176.347 354 195.112 334.968 195.112 311.354H287.193C298.313 311.354 307 302.19 307 291.264C307 285.977 304.916 281.043 301.093 277.166L272.6 248.265V155.571C272.947 101.646 237.852 54.0657 186.772 39.9677V35.3868C187.12 22.3462 180.17 10.3624 168.703 4.0183C158.626 -1.62089 146.464 -1.26883 136.735 4.72281C126.658 10.7144 120.054 21.9934 120.054 33.9767V40.3205C68.9745 54.7709 33.5323 102.352 34.2273 155.924V248.618L5.73346 277.519C-1.91115 285.273 -1.91115 298.314 5.73346 306.067C8.8608 309.24 13.7257 311.354 18.938 311.354ZM153.066 336.378C139.166 336.378 127.351 325.452 126.309 311.354H179.822C178.78 325.452 166.965 336.73 153.066 336.378Z" fill="#E2DEE4"/>
</svg>
