<svg width="354" height="355" viewBox="0 0 354 355" fill="none" xmlns="http://www.w3.org/2000/svg">
<path fill-rule="evenodd" clip-rule="evenodd" d="M177.351 0C79.5001 -0.194227 0.000289651 79.1485 0 177C-0.000289939 274.949 79.7555 354.389 177.704 354C275.263 353.612 354 274.56 354 177C354 79.3426 275.009 0.193842 177.351 0ZM199.521 197.058C240.692 205.151 273.769 253.009 287.141 292.068C287.141 292.068 246.322 336.054 177.704 335.702C108.381 335.702 67.5621 292.068 67.5621 292.068C80.582 253.009 114.011 205.151 155.182 197.058C135.828 188.612 122.104 168.907 122.104 146.386C122.104 115.771 146.737 91.139 177.351 91.139C207.966 91.139 232.598 115.771 232.598 146.386C232.598 168.907 218.874 188.612 199.521 197.058Z" fill="#E2DEE4"/>
</svg>
