<svg width="354" height="354" viewBox="0 0 354 354" fill="none" xmlns="http://www.w3.org/2000/svg">
<path d="M209.054 126.785C209.054 126.428 208.34 122.154 211.902 120.373C215.819 118.593 218.669 121.442 219.025 121.798C268.528 187.327 228.996 252.5 205.135 287.402C189.109 310.907 180.919 332.276 179.494 354C193.384 353.644 206.917 351.507 220.094 348.302C222.944 340.111 227.217 331.562 233.271 323.015C249.654 299.51 267.103 279.567 263.542 242.529C263.542 242.173 263.185 238.611 267.103 236.831C271.376 235.05 273.87 238.611 274.226 238.967C288.471 262.829 294.169 288.115 292.033 310.551C329.783 278.143 354 230.777 354 177C354 79.0624 274.583 0 177.001 0C79.0635 0 0 79.4185 0 177C0 221.161 16.7399 261.404 43.8063 292.388C47.0115 272.088 56.271 250.72 72.6533 228.996C129.279 153.495 169.878 110.046 156.345 58.7623C155.988 57.6939 155.633 54.1328 158.838 52.3521C163.824 49.8592 166.672 54.8446 167.028 55.2008C200.149 110.046 170.235 174.863 121.8 249.296C106.843 272.445 96.1577 302.716 96.5138 333.7C108.622 340.11 121.444 345.096 134.977 348.302C132.84 316.249 141.742 280.992 162.398 250.364C200.861 194.094 214.396 156.7 209.054 126.785Z" fill="#E2DEE4"/>
</svg>
